<?xml version="1.0" encoding="utf-8"?>
<!-- Generator: Adobe Illustrator 21.0.2, SVG Export Plug-In . SVG Version: 6.00 Build 0)  -->
<svg version="1.1" id="Layer_1" xmlns="http://www.w3.org/2000/svg" xmlns:xlink="http://www.w3.org/1999/xlink" x="0px" y="0px"
	 viewBox="0 0 475 400" style="enable-background:new 0 0 475 400;" xml:space="preserve">
<style type="text/css">
	.st0{fill:#121321;}
	.st1{fill:#FAAC18;}
	.st2{clip-path:url(#SVGID_2_);}
	.st3{fill:#FFAA1D;}
	.st4{fill:none;}
	.st5{fill:#FFFFFF;}
	.st6{clip-path:url(#SVGID_4_);fill:#FFAA1D;}
	.st7{clip-path:url(#SVGID_6_);fill:#FFAA1D;}
	.st8{clip-path:url(#SVGID_8_);fill:#FFAA1D;}
	.st9{clip-path:url(#SVGID_10_);fill:#FFAA1D;}
	.st10{fill:#121321;stroke:#121321;stroke-miterlimit:10;}
	.st11{clip-path:url(#SVGID_12_);fill:#FFAA1D;}
</style>
<g>
	<g>
		<path class="st10" d="M346.3,205L250.1,58.7c-3.3-5-9.2-8-15.7-8c-6.6,0-12.4,3-15.7,8L122.5,205c-3.3,5-3.3,11,0,15.9
			c3.3,5,9.2,8,15.7,8h192.4c6.6,0,12.4-3,15.7-8C349.6,216,349.6,210,346.3,205z M342.6,219.1c-2.5,3.8-7,6.1-12.1,6.1H138.2
			c-5,0-9.5-2.3-12.1-6.1c-2.5-3.8-2.5-8.4,0-12.2l15.3-23.2l16.7,1c6.3,0.4,12.2,2.8,16.6,6.7l20.2,17.7c-0.5,1.6,0.4,3.3,2.1,4
			c2,0.8,4.3,0,5.2-1.7c0.9-1.7,0-3.8-1.9-4.5c-0.7-0.3-1.5-0.4-2.3-0.3l-20.3-17.9c-5.2-4.5-12-7.3-19.3-7.8l-14.6-0.8l8.7-13.2
			l13.5,0.8c8.2,0.5,15.8,3.6,21.6,8.7l35.6,31.2c-0.6,1.5-0.2,3.3,1.1,4.5c1.9,1.7,5,1.7,6.9,0c1.9-1.7,1.9-4.4,0-6.1
			c-1.4-1.2-3.4-1.5-5.1-1l-35.6-31.2c-6.5-5.7-15.1-9.2-24.3-9.8l-11.5-0.7l67.5-102.7c2.5-3.8,7-6.1,12.1-6.1
			c5,0,9.5,2.3,12.1,6.1l41.1,62.6l-13.5-0.7c-6.3-0.4-12.2-2.8-16.6-6.7l-29.3-25.5c0.3-1.1-0.1-2.3-1-3.2c-1.5-1.3-4-1.3-5.5,0
			c-1.5,1.3-1.5,3.5,0,4.8c1,0.8,2.3,1.2,3.6,0.9l29.3,25.5c5.2,4.5,12,7.3,19.3,7.8l16.3,0.8l9.4,14.3l-33.4-1.9
			c-8.2-0.5-15.8-3.6-21.6-8.7l-25.7-22.6c0.6-1.5,0.2-3.3-1.2-4.5c-1.9-1.7-5-1.7-6.9,0c-1.9,1.7-1.9,4.4,0,6.1
			c1.4,1.2,3.4,1.5,5.1,1l25.7,22.6c6.5,5.7,15.1,9.2,24.3,9.8l36.2,2l40.6,61.7C345.2,210.7,345.2,215.3,342.6,219.1z"/>
		<path class="st3" d="M233.7,151.5c-7.1,0-12.8,5-12.8,11.2c0,6.2,5.7,11.2,12.8,11.2s12.8-5,12.8-11.2
			C246.5,156.5,240.8,151.5,233.7,151.5z M233.7,170.2c-4.7,0-8.6-3.4-8.6-7.5c0-4.1,3.8-7.5,8.6-7.5c4.7,0,8.6,3.4,8.6,7.5
			C242.3,166.8,238.5,170.2,233.7,170.2z"/>
	</g>
	<g>
		<path class="st0" d="M47.3,287.8l-26,51.1c-1,1.9,0.4,4.1,2.5,4.1h2.6c1,0,2-0.6,2.5-1.5l20.9-40.9l20.7,40.9
			c0.5,0.9,1.4,1.5,2.5,1.5h2.7c2.1,0,3.5-2.3,2.5-4.1l-25.9-51.1C51.2,285.8,48.4,285.8,47.3,287.8z"/>
		<path class="st0" d="M114,286.1c-7,0-13.1,2.8-18,8.4c-4.9,5.5-7.4,12.2-7.5,20V341c0,1.2,1,2.2,2.2,2.2h3.5c1.2,0,2.2-1,2.2-2.2
			v-26.4c0.1-5.5,1.9-10.3,5.3-14.2c3.5-3.9,7.5-5.7,12.3-5.7c0.7,0,2.1,0.2,3.4,0.5c1.4,0.3,2.6-0.8,2.6-2.2v-4.1
			c0-1.1-0.8-2-1.9-2.2C116.7,286.3,114.9,286.1,114,286.1z"/>
		<path class="st0" d="M129.5,288.6v52.2c0,1.3,1.1,2.4,2.4,2.4h3.2c1.3,0,2.4-1.1,2.4-2.4v-52.2c0-1.3-1.1-2.4-2.4-2.4H132
			C130.6,286.1,129.5,287.2,129.5,288.6z"/>
		<path class="st0" d="M223.4,286.1c-1,0-1.9,0.8-1.9,1.9v33.6c-0.1,3.8-1.4,6.9-4.1,9.5c-2.7,2.6-5.8,3.9-9.6,3.9
			c-3.8,0-6.9-1.3-9.6-3.9c-2.7-2.7-4-5.8-4.1-9.5v-33.6c0-1-0.8-1.9-1.9-1.9h-4.2c-1,0-1.9,0.8-1.9,1.9v33.6
			c-0.1,3.8-1.4,6.9-4.1,9.5c-2.7,2.6-5.8,3.9-9.6,3.9c-3.6,0-7-1.4-9.6-3.9c-2.7-2.6-4-5.8-4.1-9.5v-33.6c0-1-0.8-1.9-1.9-1.9h-4.2
			c-1,0-1.9,0.8-1.9,1.9v33.5c0,5.9,2.2,11,6.4,15.1c4.2,4.2,9.3,6.3,15.2,6.3c4.3,0,8.2-1.2,11.8-3.5c2.5-1.6,4.5-3.4,5.8-5.4
			c1.4,2,3.3,3.8,5.8,5.4c3.6,2.3,7.5,3.5,11.8,3.5c5.9,0,11-2.1,15.2-6.3c4.2-4.1,6.3-9.2,6.4-15.1v-33.6c0-1-0.8-1.9-1.9-1.9
			H223.4z"/>
		<path class="st0" d="M287.6,294.5c-5.5-5.5-12.3-8.4-20.2-8.4c-7.8,0-14.6,2.8-20.2,8.4s-8.4,12.3-8.4,20.2
			c0,7.8,2.8,14.6,8.4,20.2c5.5,5.5,12.3,8.4,20.2,8.4c7.8,0,14.6-2.8,20.2-8.4c5.5-5.5,8.4-12.3,8.4-20.1
			C296,306.8,293.2,300,287.6,294.5z M267.4,335.1c-5.7,0-10.4-2-14.5-6c-4-4-6-8.8-6-14.5s2-10.4,6-14.5c4-4,8.8-6,14.5-6
			s10.4,2,14.5,6c4,4,6,8.8,6,14.5c0,5.7-2,10.4-6,14.5C277.8,333.1,273.1,335.1,267.4,335.1z"/>
		<path class="st0" d="M349,294.6c-5-5.6-11-8.5-18.1-8.5c-7,0-13.1,2.8-18,8.4c-4.9,5.5-7.4,12.2-7.5,20v27.2
			c0,0.8,0.7,1.5,1.5,1.5h5c0.8,0,1.5-0.7,1.5-1.5v-27.2c0.1-5.5,1.9-10.3,5.3-14.2c3.5-3.9,7.5-5.7,12.3-5.7
			c4.8,0,8.8,1.9,12.2,5.8c3.5,3.9,5.2,8.7,5.3,14.3v27.1c0,0.8,0.7,1.5,1.5,1.5h5c0.8,0,1.5-0.7,1.5-1.5v-27.1
			C356.4,306.8,353.9,300.1,349,294.6z"/>
		<path class="st0" d="M377.8,286.2v-9.5c0-0.8-0.6-1.4-1.4-1.4h-5.3c-0.8,0-1.4,0.6-1.4,1.4v9.5h-10.7c-0.8,0-1.4,0.6-1.4,1.4v5.3
			c0,0.8,0.6,1.4,1.4,1.4h10.6v47.4c0,0.8,0.6,1.4,1.4,1.4h5.4c0.8,0,1.4-0.6,1.4-1.4v-47.4h10.7c0.8,0,1.4-0.6,1.4-1.4v-5.3
			c0-0.8-0.6-1.4-1.4-1.4H377.8z"/>
		<path class="st0" d="M439.6,294.5c-5.5-5.5-12.3-8.4-20.2-8.4c-7.8,0-14.6,2.8-20.2,8.4s-8.4,12.3-8.4,20.2
			c0,7.8,2.8,14.6,8.4,20.2c5.5,5.5,12.3,8.4,20.2,8.4c7.8,0,14.6-2.8,20.2-8.4c5.5-5.5,8.4-12.3,8.4-20.1
			C447.9,306.8,445.1,300,439.6,294.5z M419.4,335.1c-5.7,0-10.4-2-14.5-6c-4-4-6-8.8-6-14.5s2-10.4,6-14.5c4-4,8.8-6,14.5-6
			s10.4,2,14.5,6c4,4,6,8.8,6,14.5c0,5.7-2,10.4-6,14.5C429.8,333.1,425.1,335.1,419.4,335.1z"/>
		<circle class="st1" cx="419.3" cy="339.1" r="4"/>
		<circle class="st1" cx="443.9" cy="314.7" r="4"/>
		<g>
			<defs>
				<rect id="SVGID_11_" x="419.3" y="314.5" width="34.7" height="34.7"/>
			</defs>
			<clipPath id="SVGID_2_">
				<use xlink:href="#SVGID_11_"  style="overflow:visible;"/>
			</clipPath>
			<path style="clip-path:url(#SVGID_2_);fill:#FFAA1D;" d="M439.6,294.5c-5.5-5.5-12.3-8.4-20.2-8.4c-7.8,0-14.6,2.8-20.2,8.4
				s-8.4,12.3-8.4,20.2c0,7.8,2.8,14.6,8.4,20.2c5.5,5.5,12.3,8.4,20.2,8.4c7.8,0,14.6-2.8,20.2-8.4c5.5-5.5,8.4-12.3,8.4-20.1
				C447.9,306.8,445.1,300,439.6,294.5z M419.4,335.1c-5.7,0-10.4-2-14.5-6c-4-4-6-8.8-6-14.5s2-10.4,6-14.5c4-4,8.8-6,14.5-6
				s10.4,2,14.5,6c4,4,6,8.8,6,14.5c0,5.7-2,10.4-6,14.5C429.8,333.1,425.1,335.1,419.4,335.1z"/>
		</g>
	</g>
</g>
</svg>
